<?xml version="1.0" encoding="UTF-8"?>
<svg width="200px" height="200px" viewBox="0 0 200 200" version="1.1" xmlns="http://www.w3.org/2000/svg" xmlns:xlink="http://www.w3.org/1999/xlink">
    <title>GOLDx</title>
    <g id="Page-1" stroke="none" stroke-width="1" fill="none" fill-rule="evenodd">
        <g id="Artboard备份" transform="translate(-1449.000000, -1959.000000)" fill-rule="nonzero">
            <g id="GOLDx" transform="translate(1449.000000, 1959.000000)">
                <g id="椭圆形" stroke="#E8ECEF" stroke-width="2">
                    <circle cx="100" cy="100" r="99"></circle>
                </g>
                <g transform="translate(53.333333, 46.666667)" id="路径">
                    <path d="M55.1547005,79.4482759 L14.5848656,79.4482759 C6.53360217,79.439422 0.00901093567,73.0285901 3.92023578e-14,65.1177041 L3.92023578e-14,7.72936919 C3.92023578e-14,3.46055646 3.52196351,0 7.86652568,0 C12.2110878,0 15.7330514,3.46055646 15.7330514,7.72936919 L15.7330514,63.9984629 L55.1565172,63.9984629 C59.8838624,63.9984629 63.7161329,60.2330098 63.7161329,55.588088 C63.7161329,50.9431663 59.8838624,47.1777132 55.1565172,47.1777132 L32.8722669,47.1777132 C28.5277047,47.1777132 25.0057412,43.7171568 25.0057412,39.448344 C25.0057412,35.1795313 28.5277047,31.7189749 32.8722669,31.7189749 L55.1547005,31.7189749 C68.5495951,31.7189749 79.4482759,42.4294171 79.4482759,55.5889806 C79.4482759,68.748544 68.5495951,79.4482759 55.1547005,79.4482759 Z" fill="#FFBB3B"></path>
                    <path d="M52.0081261,110.344828 L7.52719499,110.344828 C3.37579268,110.344828 0.0104163083,106.901246 0.0104163083,102.653374 C0.0104163083,98.4055015 3.37579268,94.9619205 7.52719499,94.9619202 L52.0081261,94.9619202 C73.4509103,94.9619202 90.8940043,77.1117082 90.8940043,55.1724138 C90.8940043,33.2331194 73.4491744,15.3829074 52.0081261,15.3829074 L7.51677913,15.3829074 C3.36537665,15.3829074 1.96011789e-14,11.9393263 1.96011789e-14,7.69145369 C1.96011789e-14,3.44358111 3.36537665,0 7.51677913,0 L52.0081261,0 C81.7401991,0 105.931034,24.7512046 105.931034,55.1759664 C105.931034,85.6007283 81.7401991,110.344828 52.0081261,110.344828 Z" fill="#FA9B00"></path>
                </g>
            </g>
        </g>
    </g>
</svg>